<svg id="Layer_1" enable-background="new 0 0 256 256" height="512" viewBox="0 0 256 256" width="512" xmlns="http://www.w3.org/2000/svg"><path d="m152.71 137.699c-10.328 10.328-24.109 15.996-38.801 15.961-14.681-.036-28.475-5.763-38.839-16.128-21.452-21.452-21.528-56.282-.169-77.641 10.328-10.328 24.107-15.996 38.8-15.961 14.682.036 28.475 5.764 38.841 16.128 10.367 10.367 16.095 24.165 16.128 38.85.033 14.69-5.635 28.466-15.96 38.791z" fill="#a4c9ff"/><path d="m243.786 228.776c-5.619 5.619-14.729 5.619-20.347 0l-47.883-47.883c-1.798-1.798-1.798-4.713 0-6.511l13.836-13.836c1.798-1.798 4.713-1.798 6.511 0l47.883 47.883c5.619 5.618 5.619 14.728 0 20.347z" fill="#6bdddd"/><path d="m189.237 160.7-15.381-15.381c-1.935 2.5-4.027 4.916-6.319 7.208s-4.708 4.384-7.208 6.319l15.381 15.381z" fill="#e0ebfc"/><path d="m167.298 45.302c-29.628-29.628-77.73-29.736-107.226-.24s-29.388 77.598.24 107.226 77.729 29.736 107.226.239c29.496-29.496 29.388-77.597-.24-107.225zm-14.588 92.397c-10.328 10.328-24.109 15.996-38.801 15.961-14.681-.036-28.475-5.763-38.839-16.128-21.452-21.452-21.528-56.282-.169-77.641 10.328-10.328 24.107-15.996 38.8-15.961 14.682.036 28.475 5.764 38.841 16.128 10.367 10.367 16.095 24.165 16.128 38.85.033 14.69-5.635 28.466-15.96 38.791z" fill="#f9a7a7"/><g fill="#3762cc"><path d="m233.612 234.982c-4.197 0-8.393-1.597-11.588-4.792l-47.883-47.883c-1.248-1.247-1.935-2.905-1.935-4.669s.687-3.422 1.935-4.669l13.836-13.836c1.247-1.248 2.905-1.935 4.669-1.935s3.422.687 4.669 1.935l47.883 47.883c6.39 6.389 6.39 16.786 0 23.176-3.192 3.192-7.39 4.79-11.586 4.79zm-40.965-73.784c-.667 0-1.333.254-1.841.761l-13.836 13.836c-1.015 1.015-1.015 2.667 0 3.683l47.883 47.883c4.829 4.829 12.688 4.829 17.52 0 4.83-4.831 4.83-12.689 0-17.52l-47.883-47.883c-.509-.506-1.176-.76-1.843-.76zm51.139 67.578h.01z"/><path d="m175.71 176.227c-.512 0-1.024-.195-1.414-.586l-15.381-15.381c-.406-.406-.618-.967-.582-1.541.037-.574.318-1.104.772-1.455 2.582-1.998 4.877-4.01 7.018-6.151 2.143-2.142 4.155-4.438 6.152-7.018.352-.455.882-.735 1.455-.772.57-.036 1.135.176 1.541.582l15.38 15.381c.781.781.781 2.047 0 2.828l-13.527 13.527c-.39.391-.902.586-1.414.586zm-12.382-17.211 12.382 12.382 10.698-10.698-12.382-12.383c-1.644 2.009-3.345 3.894-5.075 5.625-1.729 1.729-3.614 3.431-5.623 5.074z"/><path d="m114.146 176.579c-19.986 0-39.999-7.628-55.247-22.876-30.408-30.408-30.516-79.778-.24-110.054s79.646-30.169 110.054.24c30.408 30.408 30.516 79.778.24 110.054-15.095 15.093-34.938 22.636-54.807 22.636zm-.681-151.57c-18.849 0-37.662 7.151-51.979 21.467-28.716 28.716-28.608 75.549.24 104.397 14.466 14.466 33.46 21.705 52.419 21.707 18.848.001 37.662-7.151 51.978-21.467 28.716-28.717 28.608-75.549-.24-104.397-14.466-14.466-33.459-21.707-52.418-21.707zm.581 130.65c-.048 0-.094 0-.143 0-15.214-.037-29.507-5.973-40.248-16.713-10.752-10.751-16.691-25.051-16.724-40.265-.033-15.217 5.847-29.495 16.556-40.204 10.672-10.673 24.902-16.547 40.077-16.547h.143c15.214.038 29.508 5.973 40.25 16.714 10.744 10.744 16.68 25.042 16.713 40.26.034 15.225-5.842 29.504-16.546 40.208-10.673 10.674-24.903 16.547-40.078 16.547zm-.482-109.729c-14.108 0-27.331 5.457-37.249 15.375-9.951 9.951-15.415 23.222-15.384 37.367.031 14.148 5.554 27.447 15.552 37.445 9.988 9.988 23.281 15.507 37.43 15.542h.133c14.108 0 27.332-5.457 37.25-15.375 9.946-9.946 15.406-23.218 15.375-37.371s-5.551-27.45-15.542-37.441c-9.989-9.988-23.283-15.508-37.432-15.542-.044 0-.089 0-.133 0z"/></g><path d="m86.208 80.903c0-3.494 1.122-7.036 3.366-10.623s5.519-6.557 9.824-8.912c4.304-2.354 9.326-3.532 15.065-3.532 5.334 0 10.044.984 14.127 2.952 4.084 1.969 7.238 4.645 9.465 8.029 2.226 3.385 3.339 7.064 3.339 11.037 0 3.128-.635 5.868-1.904 8.222-1.269 2.355-2.778 4.387-4.525 6.098-1.748 1.711-4.885 4.591-9.409 8.637-1.251 1.142-2.254 2.144-3.007 3.007-.755.865-1.315 1.656-1.683 2.373s-.654 1.436-.856 2.153-.506 1.978-.91 3.779c-.699 3.827-2.888 5.74-6.567 5.74-1.913 0-3.524-.625-4.829-1.877-1.306-1.25-1.959-3.108-1.959-5.573 0-3.09.477-5.766 1.435-8.029.956-2.263 2.226-4.249 3.808-5.959 1.581-1.711 3.716-3.744 6.402-6.099 2.354-2.06 4.056-3.614 5.104-4.662 1.049-1.049 1.932-2.216 2.649-3.505.718-1.287 1.077-2.685 1.077-4.195 0-2.943-1.095-5.426-3.284-7.449-2.189-2.022-5.013-3.035-8.471-3.035-4.047 0-7.027 1.02-8.94 3.062s-3.532 5.05-4.856 9.023c-1.251 4.157-3.624 6.235-7.119 6.235-2.06 0-3.798-.725-5.215-2.179-1.419-1.453-2.127-3.025-2.127-4.718zm26.93 60.482c-2.244 0-4.203-.726-5.877-2.179-1.675-1.453-2.511-3.485-2.511-6.098 0-2.318.809-4.267 2.429-5.85 1.618-1.581 3.605-2.373 5.959-2.373 2.318 0 4.267.792 5.85 2.373 1.581 1.583 2.373 3.532 2.373 5.85 0 2.575-.828 4.599-2.484 6.07-1.655 1.47-3.568 2.207-5.739 2.207z" fill="#ffea92"/><path d="m113.047 158.03h-15.12c-2.767 0-5.287 1.565-6.47 4.018-2.247 4.66-9.007 4.66-11.254 0-1.183-2.454-3.703-4.018-6.47-4.018h-15.12c-6.508 0-12.336 3.953-14.634 9.925l-15.461 40.193c-1.588 4.128 1.522 8.538 6.02 8.538h51.292 51.292c4.498 0 7.608-4.411 6.02-8.538l-15.461-40.193c-2.298-5.972-8.126-9.925-14.634-9.925z" fill="#4671c6"/><path d="m34.537 216.687h51.292 51.292c4.498 0 7.608-4.411 6.02-8.539l-5.356-13.922h-103.913l-5.356 13.922c-1.587 4.128 1.523 8.539 6.021 8.539z" fill="#f9cfcf"/><path d="m137.122 218.687h-102.585c-2.803 0-5.415-1.366-6.986-3.654-1.536-2.236-1.872-5.078-.901-7.603l15.461-40.193c2.579-6.703 9.209-11.207 16.5-11.207h15.12c3.517 0 6.763 2.021 8.271 5.15.714 1.48 2.144 2.363 3.826 2.363s3.112-.883 3.826-2.363c1.509-3.128 4.756-5.15 8.271-5.15h15.12c7.291 0 13.922 4.504 16.5 11.208l15.461 40.192c.971 2.525.634 5.367-.901 7.602-1.568 2.288-4.18 3.655-6.983 3.655zm-78.51-58.657c-5.648 0-10.779 3.474-12.767 8.643l-15.461 40.193c-.505 1.313-.336 2.735.464 3.901.837 1.219 2.182 1.918 3.689 1.918h102.584c1.507 0 2.852-.699 3.689-1.918.801-1.166.97-2.588.465-3.901l-15.461-40.193c-1.989-5.17-7.119-8.644-12.767-8.644h-15.12c-1.99 0-3.822 1.133-4.668 2.887-1.376 2.854-4.223 4.626-7.429 4.626-3.206 0-6.052-1.772-7.428-4.626-.846-1.754-2.679-2.887-4.669-2.887h-15.121z" fill="#3762cc"/><path d="m150.632 232.924h-129.057c-7.497 0-13.575-6.078-13.575-13.575v-3.814c0-2.364 1.916-4.28 4.28-4.28h147.648c2.364 0 4.28 1.916 4.28 4.28v3.814c-.001 7.497-6.079 13.575-13.576 13.575z" fill="#4671c6"/><path d="m150.632 234.924h-129.057c-8.588 0-15.575-6.987-15.575-15.575v-3.813c0-3.463 2.817-6.28 6.28-6.28h147.647c3.463 0 6.28 2.817 6.28 6.28v3.813c0 8.588-6.987 15.575-15.575 15.575zm-138.352-21.668c-1.257 0-2.28 1.022-2.28 2.28v3.813c0 6.382 5.192 11.575 11.575 11.575h129.058c6.382 0 11.575-5.192 11.575-11.575v-3.813c0-1.257-1.023-2.28-2.28-2.28z" fill="#3762cc"/></svg>