<svg id="Layer_1" enable-background="new 0 0 510 510" height="512" viewBox="0 0 510 510" width="512" xmlns="http://www.w3.org/2000/svg"><g><g><path d="m254.922 0c-98.131 0-158.581 55.352-158.747 55.445 0 0-2.513 3.137-2.983 5.222-3.818 16.948-7.385 39.663-7.385 56.238 0 140.833 118.763 254.972 259.596 254.972 54.231 0 114.568-25.992 154.949-57.243.903-.699 3.769-5.396 3.769-5.396.178-1.087 5.8-23.477 5.8-54.239.001-140.832-114.167-254.999-254.999-254.999z" fill="#3342aa"/><g><path d="m342.576 364.664c-139.755-1.503-252.778-116.306-252.193-256.067.076-18.236 2.079-36.009 5.792-53.151-33.824 26.946-60.628 62.323-77.277 102.936v184.457c0 6.155 1.344 12.233 3.898 17.834.053.116.106.233.159.349 6.934 15.147 22.105 24.827 38.764 24.827h412.111c13.96-23.313 24.329-49.088 30.291-76.609-44.237 35.234-100.443 56.081-161.545 55.424z" fill="#2b3890"/></g></g><path d="m154.31 384.996v104.373c30.868 13.272 64.878 20.631 100.612 20.631 92.72 0 174.768-49.76 219.425-125.004z" fill="#ffa50a"/><g><path d="m292.17 298.484c12.286 0 12.371 47.56 12.371 47.56s22.178-42.072 33.056-36.363-11.148 47.861-11.148 47.861 39.189-26.947 46.168-16.836-32.113 37.198-32.113 37.198 47.223-5.648 48.704 6.548-45.722 18.014-45.722 18.014 44.439 16.945 40.082 28.432-48.856-5.298-48.856-5.298 31.474 35.656 22.278 43.802c-9.196 8.147-40.798-27.395-40.798-27.395s11.299 46.198-.63 49.138-23.393-43.217-23.393-43.217-11.465 46.157-23.393 43.217-.63-49.138-.63-49.138-31.602 35.542-40.798 27.395 22.278-43.802 22.278-43.802-44.499 16.785-48.856 5.298 40.082-28.432 40.082-28.432-47.203-5.818-45.722-18.014 48.704-6.548 48.704-6.548-39.092-27.087-32.113-37.198 46.168 16.836 46.168 16.836-22.026-42.152-11.148-47.861 33.056 36.363 33.056 36.363.087-47.56 12.373-47.56z" fill="#dd544f"/><circle cx="292.17" cy="394.882" fill="#ffc305" r="28.202"/></g><g><path d="m396.356 303.602c6.442 0 12.002 22.804 12.002 22.804s17.901-15.181 23.113-11.394-3.694 25.503-3.694 25.503 23.406-1.759 25.396 4.367c1.991 6.127-17.979 18.461-17.979 18.461s19.97 12.334 17.979 18.461-25.396 4.367-25.396 4.367 8.906 21.716 3.694 25.503-23.113-11.394-23.113-11.394-5.559 22.804-12.002 22.804-12.002-22.804-12.002-22.804-17.901 15.181-23.113 11.394 3.694-25.503 3.694-25.503-23.406 1.759-25.396-4.367c-1.991-6.127 17.979-18.461 17.979-18.461s-19.97-12.334-17.979-18.461 25.396-4.367 25.396-4.367-8.906-21.716-3.694-25.503 23.113 11.394 23.113 11.394 5.559-22.804 12.002-22.804z" fill="#3342aa"/><circle cx="396.356" cy="363.343" fill="#fff" r="22.117"/></g><g><circle cx="366.479" cy="144.043" fill="#ffc305" r="79.581"/><g fill="#ffa50a"><g><path d="m402.672 239.456-36.193 46.803-36.192-46.803z"/><path d="m402.672 47.5-36.193-46.803-36.192 46.803z"/></g><g><path d="m459.938 185.753 7.503 58.686-58.687-7.502z"/><path d="m324.205 50.02-58.687-7.503 7.503 58.687z"/></g><g><path d="m462.457 107.286 46.803 36.192-46.803 36.193z"/><path d="m270.501 107.286-46.803 36.192 46.803 36.193z"/></g><g><path d="m408.754 50.02 58.687-7.503-7.503 58.687z"/><path d="m273.021 185.753-7.503 58.686 58.687-7.502z"/></g></g></g><path d="m97.295 354.93h-41.133c-16.868 0-30.592-13.723-30.592-30.592v-149.09c0-7.124-2.084-13.758-5.662-19.341-3.102 7.346-5.862 14.871-8.277 22.548v153.137c11.245 35.749 30.147 68.105 54.79 95.139h30.874c19.827 0 35.901-16.073 35.901-35.9s-16.073-35.901-35.901-35.901z" fill="#7dbe3b"/><g><path d="m158.426 340.636h-47.287c-19.827 0-35.901-16.073-35.901-35.9s16.073-35.9 35.901-35.9h47.287c14.248 0 25.84-11.592 25.84-25.84v-76.371c0-19.827 16.073-35.9 35.901-35.9s35.901 16.073 35.901 35.9v76.371c-.001 53.839-43.802 97.64-97.642 97.64z" fill="#7dbe3b"/></g><g fill="#5ea570"><path d="m209.275 245.15v-112.743c-4.931 1.568-9.399 4.172-13.151 7.556v105.187c0 21.055-17.129 38.184-38.184 38.184h-28.849v13.151h28.849c28.307-.001 51.335-23.03 51.335-51.335z"/><path d="m241.915 138.059c-3.848-2.934-8.306-5.108-13.151-6.299v111.347c0 37.778-30.734 68.512-68.512 68.512h-35.512v13.151h35.511c45.029 0 81.663-36.634 81.663-81.662v-105.049z"/><path d="m80.262 367.5h-28.849c-21.055 0-38.184-17.13-38.184-38.184v-155.75c-7.743 22.979-12.305 47.419-13.15 72.802v17.152c1.336 40.685 12.19 78.96 30.427 112.662 6.391 2.863 13.464 4.469 20.908 4.469h28.849v-13.151z"/><path d="m42.058 395.426c3.048 4.61 6.238 9.117 9.57 13.511h32.985v-13.151h-35.511c-2.378 0-4.727-.123-7.044-.36z"/></g><path d="m66.984 82.701v344.635c24.461 26.662 54.516 48.107 88.312 62.465v-408.37c0-21.322-15.113-39.113-35.211-43.249-15.49 9.592-23.849 17.228-23.911 17.263-10.431 8.311-20.182 17.436-29.19 27.256z" fill="#7dbe3b"/><g fill="#5ea570"><path d="m122.517 472.972c4.299 2.617 8.689 5.097 13.15 7.461v-435.725c-3.975-2.66-8.406-4.692-13.15-5.953z"/><path d="m86.614 446.549c4.26 3.746 8.646 7.349 13.151 10.808v-404.926c-2.348 1.894-3.566 3.001-3.589 3.015-3.257 2.594-6.437 5.279-9.561 8.027v383.076z"/></g><g><path d="m155.297 89.591v-8.16c0-24.387-19.769-44.156-44.156-44.156-24.387 0-44.156 19.769-44.156 44.156v8.16z" fill="#7dbe3b"/></g><g fill="#5ea570"><path d="m135.667 89.591v-44.883c-3.975-2.66-8.406-4.692-13.15-5.953v50.836z"/><path d="m99.764 89.591v-50.836c-4.745 1.262-9.176 3.293-13.151 5.954v44.883h13.151z"/></g></g></svg>